<?xml version="1.0" standalone="no"?>
<!DOCTYPE svg PUBLIC "-//W3C//DTD SVG 20010904//EN"
 "http://www.w3.org/TR/2001/REC-SVG-20010904/DTD/svg10.dtd">
<svg version="1.0" xmlns="http://www.w3.org/2000/svg" 
 width="40px" height="40px" viewBox="0 0 300.000000 360.000000"  
 preserveAspectRatio="xMidYMid meet">

<g transform="translate(0.000000,360.000000) scale(0.100000,-0.100000)"
fill="#bee2e7" stroke="none">
<path d="M1208 3589 c-359 -35 -666 -167 -879 -379 -138 -137 -210 -260 -250
-428 -18 -74 -20 -108 -16 -232 6 -171 26 -260 92 -395 49 -101 104 -164 229
-263 97 -78 159 -110 323 -165 188 -65 262 -79 771 -152 565 -80 640 -100 769
-196 l52 -39 346 0 c289 0 347 2 351 14 8 21 -49 178 -87 242 -133 219 -390
369 -765 448 -67 14 -249 44 -405 66 -510 73 -613 90 -694 117 -236 76 -339
183 -339 353 -1 63 4 85 28 135 61 125 200 224 384 272 130 34 385 43 540 19
249 -38 436 -139 536 -290 48 -72 86 -189 86 -264 0 -38 5 -64 14 -71 9 -8
103 -11 322 -9 l309 3 -2 93 c-7 355 -185 676 -486 876 -294 195 -766 290
-1229 245z"/>
<path d="M150 1267 c-33 -17 -50 -53 -50 -109 l0 -48 -50 0 c-49 0 -50 -1 -50
-30 0 -29 1 -30 50 -30 l50 0 0 -185 0 -185 40 0 40 0 2 183 3 182 78 3 77 3
0 -186 0 -185 40 0 40 0 0 215 0 215 -120 0 -120 0 0 34 c0 45 22 66 70 66 36
0 38 1 35 33 -2 31 -3 32 -56 35 -30 1 -65 -4 -79 -11z"/>
<path d="M340 1245 c0 -34 1 -35 40 -35 39 0 40 1 40 35 0 34 -1 35 -40 35
-39 0 -40 -1 -40 -35z"/>
<path d="M2593 1262 c-67 -24 -118 -64 -154 -121 -97 -153 -43 -347 121 -432
64 -34 196 -34 257 -1 66 35 110 79 140 140 23 47 28 70 28 132 0 91 -24 149
-85 210 -80 80 -203 109 -307 72z"/>
<path d="M500 613 c-74 -29 -104 -178 -55 -272 46 -90 182 -74 211 24 25 82
10 186 -31 225 -24 22 -95 36 -125 23z m91 -85 c14 -27 14 -130 0 -157 -15
-26 -68 -29 -87 -3 -17 22 -18 143 -1 164 25 32 70 29 88 -4z"/>
<path d="M684 318 c-99 -161 -180 -296 -182 -300 -2 -4 14 -8 36 -8 l41 0 180
294 c100 162 181 297 181 300 0 3 -18 6 -39 6 l-39 0 -178 -292z"/>
<path d="M1390 601 c-172 -56 -260 -229 -203 -397 23 -69 110 -155 182 -179
143 -47 298 16 369 150 23 43 27 62 27 135 0 69 -4 93 -23 127 -57 107 -143
164 -256 169 -39 2 -82 0 -96 -5z m175 -89 c170 -83 170 -321 0 -404 -47 -24
-92 -29 -147 -17 -74 16 -151 93 -167 167 -16 78 2 146 58 205 65 70 172 91
256 49z"/>
<path d="M1920 310 l0 -300 300 0 300 0 0 300 0 300 -300 0 -300 0 0 -300z"/>
<path d="M843 326 c-39 -18 -61 -58 -69 -128 -7 -64 8 -128 40 -165 21 -24 32
-28 79 -28 45 0 60 5 81 24 64 60 61 235 -4 283 -35 25 -88 31 -127 14z m105
-101 c24 -72 -6 -165 -53 -165 -35 0 -55 38 -55 103 0 79 18 109 63 105 27 -3
34 -9 45 -43z"/>
</g>
</svg>
